<svg xmlns="http://www.w3.org/2000/svg" width="175.977" height="49.241" viewBox="0 0 175.977 49.241">
  <g id="logo" transform="translate(-149.706 -42)">
    <path id="Intersection_1" data-name="Intersection 1" d="M-1154.555-7347v-47.613h16.8q18,0,18,15.173a14.562,14.562,0,0,1-5.164,11.6q-5.162,4.433-13.8,4.434h-5.113v16.4Zm10.724-24.538h4.218q8.567,0,8.566-7.5,0-7.337-8.566-7.337h-4.218Z" transform="translate(1304.261 7437.41)" fill="#faed25"/>
    <path id="Intersection_2" data-name="Intersection 2" d="M-1087.95-7352.61q-6.274-6.444-6.275-17.167,0-11.421,7.056-18.526t18.312-7.106a34.245,34.245,0,0,1,11.754,1.76v10.326a20.831,20.831,0,0,0-10.892-2.854,14.448,14.448,0,0,0-10.823,4.216q-4.117,4.217-4.117,11.422,0,6.9,3.884,11.007t10.458,4.1a22.322,22.322,0,0,0,11.489-3.054v9.795q-5.212,2.522-13.614,2.523Q-1081.672-7346.169-1087.95-7352.61Zm85.033,5.61v-38.881h-13.514v-8.732h37.852v8.732h-13.581V-7347Zm-45.885,0v-47.613h27.457v8.732h-16.733v10.592h15.571v8.7h-15.571v10.89h17.83v8.7Zm-63.807,0v-47.613h10.547V-7347Z" transform="translate(1304.261 7437.41)" fill="#fff"/>
  </g>
</svg>
